<svg xmlns="http://www.w3.org/2000/svg" viewBox="0 0 433.1 997.4"><defs><style>.cls-1{fill:#bb7001;}.cls-2{fill:#ffb411;}.cls-3{fill:#ffd177;}</style></defs><g id="Layer_2" data-name="Layer 2"><g id="Слой_2" data-name="Слой 2"><rect x="304.82" y="0.96" width="22.07" height="8.17"/><rect x="304.4" y="0.96" width="11.46" height="113.58"/><rect x="331.98" y="98.46" width="5.73" height="75.32" transform="translate(667.89 -4.36) rotate(135.01)"/><rect x="278.41" y="96.15" width="5.73" height="75.32" transform="translate(368.49 432.84) rotate(-131.7)"/><polygon points="320.31 187.88 317.89 193.07 247.12 160.9 252.04 156.06 320.31 187.88"/><rect x="353.32" width="22.07" height="8.17" transform="translate(728.72 8.17) rotate(180)"/><rect x="364.36" width="11.46" height="113.58" transform="translate(740.18 113.58) rotate(180)"/><rect x="342.51" y="97.5" width="5.73" height="75.32" transform="translate(196.69 -204.61) rotate(44.99)"/><rect x="396.08" y="95.2" width="5.73" height="75.32" transform="translate(34.35 342.32) rotate(-48.3)"/><polygon points="359.91 186.92 362.33 192.11 433.1 159.94 428.18 155.1 359.91 186.92"/><polygon points="319.7 170.71 281.28 394.59 346.21 451.77 402.15 389.34 366.42 170.71 319.7 170.71"/><polygon class="cls-1" points="108.43 494.87 327.7 405.03 346.21 451.77 144.05 584.85 108.43 494.87"/><polygon points="119.33 795.71 32.17 575.38 166.71 528.61 268.18 773.46 268.18 773.46 119.33 795.71"/><path class="cls-2" d="M295.34,845.41q.18-2.91.18-5.85a93.55,93.55,0,1,0-187.09,0c0,2,.07,3.91.19,5.85Z"/><path class="cls-1" d="M274.62,850.66c.1-1.61.15-3.24.15-4.88,0-43.11-32.59-78-72.79-78s-72.8,34.94-72.8,78c0,1.64.06,3.27.15,4.88Z"/><rect x="77.3" y="845.41" width="235.44" height="119.13"/><path class="cls-1" d="M332.7,964.53H71.26c-11.84,0-21.43,14.71-21.43,32.87H354.12C354.12,979.24,344.53,964.53,332.7,964.53Z"/><path class="cls-2" d="M168.61,537.51,31.68,585.21a13.25,13.25,0,0,1-16.82-8.13L.73,536.52A13.25,13.25,0,0,1,8.86,519.7L145.78,472a13.25,13.25,0,0,1,16.82,8.13l14.14,40.56A13.26,13.26,0,0,1,168.61,537.51Z"/><path class="cls-3" d="M149.72,506.22,27,549a7.86,7.86,0,0,1-10-4.83l-3.42-9.81a7.87,7.87,0,0,1,4.83-10l122.68-42.74a7.87,7.87,0,0,1,10,4.83l3.42,9.81A7.86,7.86,0,0,1,149.72,506.22Z"/><circle class="cls-2" cx="341.71" cy="420.5" r="46.25" transform="translate(-197.25 364.79) rotate(-45)"/><path class="cls-2" d="M341.71,173.44a25.86,25.86,0,1,1-25.85-25.86A25.85,25.85,0,0,1,341.71,173.44Z"/><circle class="cls-2" cx="367.57" cy="173.44" r="25.86" transform="translate(-14.98 310.71) rotate(-45)"/><path d="M377.08,173.44a9.51,9.51,0,1,1-9.51-9.51A9.51,9.51,0,0,1,377.08,173.44Z"/><path d="M325.37,174.56a9.52,9.52,0,1,1-9.51-9.51A9.51,9.51,0,0,1,325.37,174.56Z"/><circle cx="341.71" cy="420.5" r="29.33" transform="translate(-197.25 364.79) rotate(-45)"/><path class="cls-1" d="M341.71,199.3c-2.1.84-20.74,155.35-21.4,156.93s47.26,0,47.26,0Z"/><polygon class="cls-2" points="170.39 479.2 180.9 501.28 291.79 443.63 286.53 429.8 170.39 479.2"/><polygon class="cls-2" points="64.69 657.6 199.1 606.77 204.15 618.95 68.68 667.67 64.69 657.6"/><polygon class="cls-2" points="73.63 678.94 208.03 628.12 213.08 640.29 77.61 689.01 73.63 678.94"/><polygon class="cls-2" points="80.44 697.21 214.85 646.39 219.9 658.57 84.43 707.28 80.44 697.21"/><path d="M209.27,756.54a7.12,7.12,0,1,1-7.12-7.12A7.12,7.12,0,0,1,209.27,756.54Z"/><path d="M126.13,835.91a7.12,7.12,0,1,1-7.12-7.12A7.12,7.12,0,0,1,126.13,835.91Z"/><path d="M133.25,809.2a7.12,7.12,0,1,1-7.12-7.12A7.12,7.12,0,0,1,133.25,809.2Z"/><path d="M147.49,782.92a7.12,7.12,0,1,1-7.12-7.12A7.12,7.12,0,0,1,147.49,782.92Z"/><path d="M174.29,763.66a7.12,7.12,0,1,1-7.12-7.12A7.12,7.12,0,0,1,174.29,763.66Z"/><path d="M277.16,835.39a7.12,7.12,0,1,0,7.12-7.12A7.12,7.12,0,0,0,277.16,835.39Z"/><path d="M270,808.68a7.12,7.12,0,1,0,7.12-7.12A7.12,7.12,0,0,0,270,808.68Z"/><path d="M255.81,782.4a7.12,7.12,0,1,0,7.12-7.12A7.12,7.12,0,0,0,255.81,782.4Z"/><path d="M229,763.14a7.12,7.12,0,1,0,7.12-7.12A7.12,7.12,0,0,0,229,763.14Z"/></g></g></svg>